<?xml version="1.0" encoding="utf-8"?>
<!-- Generator: Adobe Illustrator 13.0.0, SVG Export Plug-In . SVG Version: 6.00 Build 14576)  -->
<!DOCTYPE svg PUBLIC "-//W3C//DTD SVG 1.1//EN" "http://www.w3.org/Graphics/SVG/1.1/DTD/svg11.dtd">
<svg version="1.1" id="Layer_3" xmlns="http://www.w3.org/2000/svg" xmlns:xlink="http://www.w3.org/1999/xlink" x="0px" y="0px"
	 width="420.565px" height="410.321px" viewBox="0 0 420.565 410.321" enable-background="new 0 0 420.565 410.321"
	 xml:space="preserve">
<path fill="none" stroke="#000000" stroke-width="9.4852" d="M147.921,81.671c-6.126-21.587,7.225-47.635,32.953-59.15
	c9.835-4.402,20.883-9.348,29.422-16.357c8.624,7.239,19.854,12.408,29.842,17.008c25.671,11.817,39.019,37.999,32.972,58.761l0,0"
	/>
<path fill="none" stroke="#000000" stroke-width="9.4852" d="M66.354,180.872c-20.707-8.646-32.778-35.311-25.771-62.614
	c2.68-10.438,5.688-22.162,5.519-33.208c11.034-2.242,22.071-7.811,31.89-12.764c25.229-12.731,54.027-6.875,66.51,10.784l0,0"/>
<path fill="none" stroke="#000000" stroke-width="9.4852" d="M93.603,306.258c-19.66,10.817-48.041,3.658-65.041-18.825
	c-6.499-8.597-13.8-18.251-22.548-24.997c5.117-10.029,7.633-22.133,9.871-32.899c5.75-27.669,28.264-46.556,49.854-45.326l0,0"/>
<path fill="none" stroke="#000000" stroke-width="9.4852" d="M208.287,363.588c-3.885,22.101-27.242,39.739-55.418,38.905
	c-10.771-0.319-22.871-0.677-33.609,1.917c-4.611-10.271-12.47-19.814-19.461-28.305c-17.965-21.814-18.582-51.194-4.101-67.254l0,0
	"/>
<path fill="none" stroke="#000000" stroke-width="9.4852" d="M324.729,309.727c14.83,16.84,14.011,46.098-4.243,67.577
	c-6.979,8.211-14.817,17.436-19.5,27.44c-10.901-2.816-23.263-2.643-34.26-2.487c-28.257,0.399-51.583-17.474-55.075-38.813l0,0"/>
<path fill="none" stroke="#000000" stroke-width="9.4852" d="M354.954,184.729c22.41-1.131,44.805,17.715,50.262,45.369
	c2.086,10.572,4.431,22.449,9.35,32.34c-8.988,6.781-16.543,16.566-23.264,25.271c-17.27,22.37-45.775,29.511-64.654,18.967l0,0"/>
<path fill="none" stroke="#000000" stroke-width="9.4852" d="M276.227,82.971c13.133-18.195,41.844-23.884,66.836-10.847
	c9.554,4.984,20.287,10.583,31.082,12.93c-0.33,11.254,2.581,23.269,5.17,33.957c6.656,27.466-5.6,54.175-25.633,62.312l0,0"/>
<circle fill="none" stroke="#000000" stroke-width="10" cx="210.278" cy="215.545" r="148.04"/>
</svg>
