<?xml version="1.0" encoding="UTF-8" standalone="no"?>
<!-- Created with Inkscape (http://www.inkscape.org/) -->

<svg
   xmlns:dc="http://purl.org/dc/elements/1.1/"
   xmlns:cc="http://creativecommons.org/ns#"
   xmlns:rdf="http://www.w3.org/1999/02/22-rdf-syntax-ns#"
   xmlns:svg="http://www.w3.org/2000/svg"
   xmlns="http://www.w3.org/2000/svg"
   version="1.1"
   width="350"
   height="500"
   id="svg3868">
  <defs
     id="defs3870" />
  <metadata
     id="metadata3873">
    <rdf:RDF>
      <cc:Work
         rdf:about="">
        <dc:format>image/svg+xml</dc:format>
        <dc:type
           rdf:resource="http://purl.org/dc/dcmitype/StillImage" />
        <dc:title></dc:title>
      </cc:Work>
    </rdf:RDF>
  </metadata>
  <g
     transform="translate(8.4745763,-552.9661)"
     id="layer1">
    <path
       d="m 59.309375,1051.739 c -1.1,-0.1612 -4.60679,-0.5777 -7.79285,-0.9254 -5.0169,-0.5475 -5.71522,-0.8768 -5.21326,-2.4583 0.61795,-1.947 0.3922,-2.0007 -20.6282,-4.9027 -4.19886,-0.5797 -8.81136,-1.5903 -10.25,-2.2458 -4.99278,-2.2749 -2.28872,-6.8515 4.06857,-6.8861 5.9267,-0.032 5.41905,-1.5279 -1.94099,-5.7188 -3.9838,-2.2684 -8.4294002,-5.3937 -9.8791102,-6.9451 -13.37931,-14.3181 -7.17220998,-42.51019 11.3968502,-51.76355 2.82242,-1.40647 6.32358,-2.55722 7.78034,-2.55722 1.45677,0 3.48626,-0.92552 4.50997,-2.05671 1.02371,-1.13119 5.38812,-3.89157 9.69869,-6.13417 4.95526,-2.57801 8.32619,-5.03941 9.1666,-6.69329 1.58544,-3.12009 2.82188,-10.17837 5.54714,-31.66614 2.15784,-17.01385 4.62452,-26.64773 10.35681,-40.44969 4.17612,-10.05507 4.97557,-16.01576 7.17548,-53.5 3.32717,-56.69156 5.24099,-66.48188 14.64949,-74.94094 6.35116,-5.71024 13.856965,-9.28494 32.354465,-15.40908 23.87228,-7.90363 29.97441,-11.3778 33.14,-18.86786 2.23877,-5.29712 1.39351,-12.18893 -1.28525,-10.47933 -0.60085,0.38346 -2.28018,3.05207 -3.73184,5.93023 -4.835,9.58617 -10.83695,7.74437 -12.16496,-3.73302 -1.01779,-8.79628 -2.16492,-12.16832 -6.47653,-19.03811 -7.72867,-12.31426 -10.18142,-18.38229 -10.18142,-25.18856 0,-5.51874 0.29345,-6.43612 2.66326,-8.32573 l 2.66326,-2.12361 -1.69736,-8.37685 c -2.22639,-10.98766 -1.5103,-23.55597 1.96265,-34.44713 1.40306,-4.4 3.2464,-8.98681 4.09631,-10.1929 0.84991,-1.20609 5.06416,-4.67271 9.36498,-7.70358 7.42501,-5.23255 11.99901,-10.41148 13.57172,-15.36665 0.39047,-1.23028 1.27044,-2.23687 1.95548,-2.23687 0.68503,0 2.5389,-1.35 4.1197,-3 1.5808,-1.65 3.68999,-3 4.68709,-3 1.38528,0 1.81291,-0.78049 1.81291,-3.30887 0,-4.03938 1.55256,-6.12947 5.5,-7.40423 6.00755,-1.94003 11.5,1.34776 11.5,6.8839 0,2.24186 0.77639,3.18463 3.96016,4.80887 2.17809,1.11118 4.65309,2.02033 5.5,2.02033 0.84691,0 1.53984,0.56741 1.53984,1.26093 0,0.69351 1.56637,3.05601 3.48082,5.25 1.91444,2.19398 3.48944,4.67033 3.5,5.50299 0.0105,0.83265 2.26888,2.582 5.01851,3.88744 14.13673,6.71168 21.30268,23.67306 20.95474,49.59864 -0.0886,6.6 -0.11448,12.50625 -0.0576,13.125 0.0569,0.61875 1.42333,1.38897 3.03646,1.71159 2.59243,0.51849 3.01275,1.11867 3.62017,5.16916 1.41662,9.44672 0.19875,14.4875 -7.28742,30.16269 -7.00202,14.66152 -9.26568,21.32477 -9.26568,27.27437 0,2.94951 -0.15602,3.05718 -4.43011,3.05718 -4.41078,0 -4.43929,-0.0229 -6.53131,-5.25 l -2.1012,-5.25 0.39564,4.5 c 0.2176,2.475 1.10873,6.1875 1.98028,8.25 1.50324,3.55735 1.82009,3.75 6.16779,3.75 5.38039,0 10.27408,1.8598 15.35711,5.83633 2.01399,1.57557 7.0368,3.86695 11.1618,5.09195 14.43961,4.28811 26.27551,12.29846 33.00342,22.33618 5.20959,7.77246 7.71011,14.86635 9.12262,25.88051 0.82881,6.46269 1.85597,10.21328 3.43384,12.53841 2.05874,3.03372 2.20894,4.1514 1.75603,13.06705 -0.47686,9.3871 -0.28325,10.56748 5.20773,31.74957 5.18283,19.99337 5.71058,23.00331 5.78604,33 0.0705,9.33752 -0.2346,11.60826 -2.01866,15.02462 -2.60439,4.98723 -8.89297,10.89875 -21.58019,20.28626 -11.6107,8.59097 -15.71083,14.11131 -15.71083,21.15277 0,3.29493 0.73818,5.65841 2.64261,8.46103 2.08018,3.06126 2.41289,4.2568 1.56327,5.61726 -0.85244,1.36498 -0.61964,2.1589 1.10739,3.77657 2.74264,2.56897 5.88397,3.76658 13.50433,5.14842 9.96576,1.80713 16.32311,3.98622 15.55171,5.33061 -0.37948,0.66135 -0.34241,0.88956 0.0824,0.50712 0.42478,-0.38243 3.12081,0.63007 5.99118,2.25 2.87037,1.61994 6.12883,2.94534 7.24103,2.94534 3.18813,0 19.91921,17.91816 23.13213,24.77336 2.37797,5.07372 2.68398,6.9238 2.68398,16.22661 0,9.7638 -0.21607,10.9207 -3.08163,16.5 -2.13637,4.1596 -4.81459,7.3804 -8.73123,10.5 l -5.64959,4.5 3.23122,2.6882 c 8.39537,6.9843 0.1379,7.4557 -136.76877,7.8081 -53.12543,0.1367 -64.41065,-0.083 -72,-1.3996 -13.513325,-2.3449 -20.139945,-2.067 -29.751875,1.2478 -8.33769,2.8754 -14.59014,4.0947 -18.24812,3.5585 z m 34,-107.40297 c 2.15758,-1.1 5.62773,-2 7.711435,-2 2.08371,0 3.78856,-0.48895 3.78856,-1.08655 0,-0.59761 2.80152,-4.00405 6.2256,-7.56987 6.77554,-7.05602 6.45833,-5.9517 5.57422,-19.4062 -0.26862,-4.08786 0.12972,-5.07639 3.82816,-9.5 2.27039,-2.71556 6.70705,-9.21238 9.85923,-14.43738 l 5.73124,-9.5 -1.13788,-10.73745 c -1.2344,-11.64818 -3.62377,-20.53174 -8.22354,-30.57471 -2.37415,-5.18363 -2.82219,-7.23735 -2.31571,-10.61479 0.68309,-4.55519 -0.92426,-7.03441 -4.15296,-6.40563 -3.61004,0.70305 -8.82842,27.50976 -12.35509,63.46777 -2.38693,24.33725 -3.30131,28.01204 -10.578875,42.51515 -5.18031,10.32359 -8.60181,17.84966 -8.11481,17.84966 0.13064,0 2.00283,-0.9 4.16042,-2 z M 240.62934,886.7196 c 10.43304,-6.27124 13.18003,-8.97953 13.18003,-12.99437 0,-6.63326 -2.31966,-13.83124 -5.68542,-17.64208 -3.56321,-4.03439 -4.01121,-5.65049 -2.09703,-7.56467 0.67712,-0.67712 1.18317,-3.59624 1.14009,-6.57659 -0.0976,-6.75487 -6.91364,-24.84091 -9.19317,-24.39379 -1.51033,0.29625 -6.27202,16.34141 -10.17555,34.28793 -2.32356,10.68255 -2.57942,24.57488 -0.55814,30.30382 1.41683,4.01572 4.37666,9.19618 5.2542,9.19618 0.25022,0 3.91097,-2.07739 8.13499,-4.61643 z"
       id="path3049"
       style="fill:none;stroke:#000000;stroke-opacity:1" />
  </g>
</svg>
